<mxfile host="app.diagrams.net" modified="2022-08-08T18:51:13.154Z" agent="5.0 (X11)" etag="asW26d_Qu6BvskJXGuEz" version="20.2.3" type="github">
  <diagram id="R8ZS0F-VQTq9mlO0JFWf" name="Page-1">
    <mxGraphModel dx="1374" dy="1859" grid="1" gridSize="10" guides="1" tooltips="1" connect="1" arrows="1" fold="1" page="1" pageScale="1" pageWidth="850" pageHeight="1100" math="0" shadow="0">
      <root>
        <mxCell id="0" />
        <mxCell id="1" parent="0" />
        <mxCell id="or_8ZkzyaJfjP6GRmbqp-6" value="" style="rounded=0;whiteSpace=wrap;html=1;fontSize=40;" parent="1" vertex="1">
          <mxGeometry x="30" y="-10" width="750" height="430" as="geometry" />
        </mxCell>
        <mxCell id="or_8ZkzyaJfjP6GRmbqp-12" style="edgeStyle=orthogonalEdgeStyle;rounded=0;orthogonalLoop=1;jettySize=auto;html=1;exitX=1;exitY=0.25;exitDx=0;exitDy=0;entryX=0;entryY=0.25;entryDx=0;entryDy=0;fontSize=40;strokeWidth=2;endArrow=none;endFill=0;" parent="1" source="or_8ZkzyaJfjP6GRmbqp-2" target="or_8ZkzyaJfjP6GRmbqp-3" edge="1">
          <mxGeometry relative="1" as="geometry" />
        </mxCell>
        <mxCell id="or_8ZkzyaJfjP6GRmbqp-2" value="&lt;font style=&quot;font-size: 40px;&quot;&gt;Front Side&lt;/font&gt;" style="whiteSpace=wrap;html=1;aspect=fixed;" parent="1" vertex="1">
          <mxGeometry x="90" y="70" width="300" height="300" as="geometry" />
        </mxCell>
        <mxCell id="or_8ZkzyaJfjP6GRmbqp-13" style="edgeStyle=orthogonalEdgeStyle;rounded=0;orthogonalLoop=1;jettySize=auto;html=1;exitX=0;exitY=0.75;exitDx=0;exitDy=0;entryX=1;entryY=0.75;entryDx=0;entryDy=0;fontSize=40;endArrow=none;endFill=0;strokeWidth=2;" parent="1" source="or_8ZkzyaJfjP6GRmbqp-3" target="or_8ZkzyaJfjP6GRmbqp-2" edge="1">
          <mxGeometry relative="1" as="geometry" />
        </mxCell>
        <mxCell id="or_8ZkzyaJfjP6GRmbqp-3" value="&lt;font style=&quot;font-size: 40px;&quot;&gt;Admin Side&lt;/font&gt;" style="whiteSpace=wrap;html=1;aspect=fixed;verticalAlign=top;" parent="1" vertex="1">
          <mxGeometry x="420" y="70" width="310" height="310" as="geometry" />
        </mxCell>
        <mxCell id="or_8ZkzyaJfjP6GRmbqp-4" value="Wordpress website" style="text;html=1;strokeColor=none;fillColor=none;align=center;verticalAlign=middle;whiteSpace=wrap;rounded=0;fontSize=40;" parent="1" vertex="1">
          <mxGeometry x="190" y="20" width="420" height="30" as="geometry" />
        </mxCell>
        <mxCell id="or_8ZkzyaJfjP6GRmbqp-5" value="" style="shape=image;html=1;verticalAlign=top;verticalLabelPosition=bottom;labelBackgroundColor=#ffffff;imageAspect=0;aspect=fixed;image=https://cdn4.iconfinder.com/data/icons/web-ui-color/128/Checkmark-128.png;fontSize=40;" parent="1" vertex="1">
          <mxGeometry x="680" y="80" width="40" height="40" as="geometry" />
        </mxCell>
        <mxCell id="or_8ZkzyaJfjP6GRmbqp-10" style="edgeStyle=orthogonalEdgeStyle;rounded=0;orthogonalLoop=1;jettySize=auto;html=1;entryX=0.5;entryY=1;entryDx=0;entryDy=0;fontSize=40;strokeWidth=2;" parent="1" source="or_8ZkzyaJfjP6GRmbqp-7" target="or_8ZkzyaJfjP6GRmbqp-2" edge="1">
          <mxGeometry relative="1" as="geometry" />
        </mxCell>
        <mxCell id="or_8ZkzyaJfjP6GRmbqp-7" value="" style="sketch=0;pointerEvents=1;shadow=0;dashed=0;html=1;strokeColor=none;labelPosition=center;verticalLabelPosition=bottom;verticalAlign=top;align=center;fillColor=#505050;shape=mxgraph.mscae.intune.user_group;fontSize=40;" parent="1" vertex="1">
          <mxGeometry x="195" y="526" width="90" height="70" as="geometry" />
        </mxCell>
        <mxCell id="or_8ZkzyaJfjP6GRmbqp-9" style="edgeStyle=orthogonalEdgeStyle;rounded=0;orthogonalLoop=1;jettySize=auto;html=1;fontSize=40;strokeWidth=2;" parent="1" source="or_8ZkzyaJfjP6GRmbqp-8" target="or_8ZkzyaJfjP6GRmbqp-3" edge="1">
          <mxGeometry relative="1" as="geometry" />
        </mxCell>
        <mxCell id="or_8ZkzyaJfjP6GRmbqp-8" value="" style="sketch=0;pointerEvents=1;shadow=0;dashed=0;html=1;strokeColor=none;labelPosition=center;verticalLabelPosition=bottom;verticalAlign=top;align=center;fillColor=#505050;shape=mxgraph.mscae.intune.user_management;fontSize=40;" parent="1" vertex="1">
          <mxGeometry x="532.5" y="522" width="85" height="78" as="geometry" />
        </mxCell>
        <mxCell id="or_8ZkzyaJfjP6GRmbqp-11" value="" style="shape=image;html=1;verticalAlign=top;verticalLabelPosition=bottom;labelBackgroundColor=#ffffff;imageAspect=0;aspect=fixed;image=https://cdn4.iconfinder.com/data/icons/web-ui-color/128/Checkmark-128.png;fontSize=40;" parent="1" vertex="1">
          <mxGeometry x="610" y="526" width="40" height="40" as="geometry" />
        </mxCell>
        <mxCell id="nlO1vkXBEiYEsvTPHCb2-1" value="" style="rounded=0;whiteSpace=wrap;html=1;" parent="1" vertex="1">
          <mxGeometry x="510" y="140" width="210" height="210" as="geometry" />
        </mxCell>
        <mxCell id="nlO1vkXBEiYEsvTPHCb2-2" value="&lt;font style=&quot;font-size: 24px;&quot;&gt;Pistachio&lt;/font&gt;" style="rounded=1;whiteSpace=wrap;html=1;" parent="1" vertex="1">
          <mxGeometry x="540" y="230" width="150" height="40" as="geometry" />
        </mxCell>
        <mxCell id="nlO1vkXBEiYEsvTPHCb2-3" value="&lt;font style=&quot;font-size: 24px;&quot;&gt;JetPack&lt;/font&gt;" style="rounded=1;whiteSpace=wrap;html=1;" parent="1" vertex="1">
          <mxGeometry x="540" y="270" width="150" height="40" as="geometry" />
        </mxCell>
        <mxCell id="nlO1vkXBEiYEsvTPHCb2-4" value="&lt;font style=&quot;font-size: 24px;&quot;&gt;Akismet&lt;/font&gt;" style="rounded=1;whiteSpace=wrap;html=1;" parent="1" vertex="1">
          <mxGeometry x="540" y="190" width="150" height="40" as="geometry" />
        </mxCell>
        <mxCell id="nlO1vkXBEiYEsvTPHCb2-5" value="Plugins:" style="text;html=1;strokeColor=none;fillColor=none;align=center;verticalAlign=middle;whiteSpace=wrap;rounded=0;fontSize=24;" parent="1" vertex="1">
          <mxGeometry x="540" y="160" width="100" height="30" as="geometry" />
        </mxCell>
        <mxCell id="nlO1vkXBEiYEsvTPHCb2-6" value=".........." style="text;html=1;strokeColor=none;fillColor=none;align=center;verticalAlign=middle;whiteSpace=wrap;rounded=0;fontSize=24;" parent="1" vertex="1">
          <mxGeometry x="540" y="310" width="60" height="30" as="geometry" />
        </mxCell>
        <mxCell id="nlO1vkXBEiYEsvTPHCb2-7" value="" style="shape=image;html=1;verticalAlign=top;verticalLabelPosition=bottom;labelBackgroundColor=#ffffff;imageAspect=0;aspect=fixed;image=https://cdn4.iconfinder.com/data/icons/web-ui-color/128/Checkmark-128.png;fontSize=40;" parent="1" vertex="1">
          <mxGeometry x="670" y="235" width="30" height="30" as="geometry" />
        </mxCell>
      </root>
    </mxGraphModel>
  </diagram>
</mxfile>
